<?xml version="1.0" encoding="UTF-8"?><svg id="Layer_1" xmlns="http://www.w3.org/2000/svg" viewBox="0 0 368.57 35.84"><defs><style>.cls-1{fill:#231f20;}</style></defs><path class="cls-1" d="m14.98,26.04c-8.22,0-13.4-3.99-13.4-9.54S6.8,6.96,14.98,6.96s13.47,3.99,13.47,9.54-4.95,9.54-13.47,9.54Zm0-15.15c-4.92,0-8.45,2.21-8.45,5.61s3.56,5.61,8.45,5.61,8.52-2.18,8.52-5.61-3.6-5.61-8.52-5.61Z"/><path class="cls-1" d="m58.98,25.71l-3.66-10.13-8.32,10.46-8.28-10.46-3.66,10.13h-4.95l7.46-18.75,9.44,11.95,9.47-11.95,7.46,18.75h-4.95Z"/><path class="cls-1" d="m82.01,22.83h-10.66l-1.78,2.87h-5.15l12.28-18.75,12.28,18.75h-5.18l-1.78-2.87Zm-8.18-3.96h5.71l-2.84-4.55-2.87,4.55Z"/><path class="cls-1" d="m91.77,25.71V7.29h11.12c7.23,0,12.77,2.01,12.77,9.21s-5.54,9.21-12.77,9.21h-11.12Zm11.12-3.96c3.43,0,7.82-.4,7.82-5.25s-4.39-5.25-7.82-5.25h-6.5v10.5h6.5Z"/><path class="cls-1" d="m133.92,22.83h-10.66l-1.78,2.87h-5.15l12.28-18.75,12.28,18.75h-5.18l-1.78-2.87Zm-8.18-3.96h5.71l-2.84-4.55-2.87,4.55Z"/><path class="cls-1" d="m164.34,15.54l-6.07,10.5-10.5-18.75h5.25l5.18,10.2,6.14-10.53,5.81,10.53,5.51-10.2h5.25l-10.5,18.75-6.07-10.5Z"/><path class="cls-1" d="m183.88,25.71V7.29h4.62v18.42h-4.62Z"/><path class="cls-1" d="m198.89,14.88v10.83h-4.65V6.96l17.62,11.45V7.29h4.65v18.75l-17.62-11.16Z"/><path class="cls-1" d="m222.25,25.71V7.29h18.75v3.93h-14.09v3.1h11.55v3.96h-11.55v3.47h14.09v3.96h-18.75Z"/><path class="cls-1" d="m270.5,24.22c-2.31,1.32-4.69,1.82-7.79,1.82-5.21,0-9.24-1.42-9.24-5.25,0-1.78.86-3.23,2.81-4.85-.89-1.09-1.32-1.78-1.32-3.14,0-3.83,3.33-5.84,8.75-5.84,1.55,0,4.29.17,5.94.66v3.93c-2.01-.4-3.7-.63-5.68-.63-3.07,0-4.32.79-4.32,1.65,0,1.15,2.18,2.87,9.67,6.53.4-.73.59-1.32.59-2.05,0-.49-.1-1.06-.26-1.78h4.16c.2,1.06.33,2.01.33,2.81,0,1.19-.3,2.28-1.06,3.4l1.19.59v3.96l-3.76-1.82Zm-11.35-5.58c-.83.73-1.02.89-1.02,1.25,0,1.16,1.88,2.24,5.05,2.24,1.25,0,2.21-.17,3.1-.26-2.44-.99-4.79-1.95-7.13-3.23Z"/><path class="cls-1" d="m287.86,25.71V7.29h11.12c7.23,0,12.77,2.01,12.77,9.21s-5.54,9.21-12.77,9.21h-11.12Zm11.12-3.96c3.43,0,7.82-.4,7.82-5.25s-4.39-5.25-7.82-5.25h-6.5v10.5h6.5Z"/><path class="cls-1" d="m316.33,25.71V7.29h18.75v3.93h-14.09v3.1h11.55v3.96h-11.55v3.47h14.09v3.96h-18.75Z"/><path class="cls-1" d="m339.73,25.71V7.29h4.62v14.49h13.1v3.93h-17.72Z"/><path class="cls-1" d="m361.08,25.71V7.29h4.62v18.42h-4.62Z"/></svg>